<?xml version="1.0" encoding="UTF-8" standalone="no"?>
<svg
   width="200mm"
   height="200mm"
   version="1.1"
   viewBox="0 0 200 200"
   xml:space="preserve"
   id="svg18"
   sodipodi:docname="book-pdf.svg"
   inkscape:version="1.2.1 (9c6d41e410, 2022-07-14)"
   xmlns:inkscape="http://www.inkscape.org/namespaces/inkscape"
   xmlns:sodipodi="http://sodipodi.sourceforge.net/DTD/sodipodi-0.dtd"
   xmlns="http://www.w3.org/2000/svg"
   xmlns:svg="http://www.w3.org/2000/svg"><sodipodi:namedview
     id="namedview12"
     pagecolor="#ffffff"
     bordercolor="#000000"
     borderopacity="0.25"
     inkscape:showpageshadow="2"
     inkscape:pageopacity="0.0"
     inkscape:pagecheckerboard="0"
     inkscape:deskcolor="#d1d1d1"
     inkscape:document-units="mm"
     showgrid="false"
     inkscape:zoom="1.3586354"
     inkscape:cx="236.63449"
     inkscape:cy="289.99686"
     inkscape:window-width="2560"
     inkscape:window-height="1369"
     inkscape:window-x="1432"
     inkscape:window-y="518"
     inkscape:window-maximized="1"
     inkscape:current-layer="svg18" /><defs
     id="defs22" /><g
     fill-opacity="0"
     stroke="#000000"
     stroke-linecap="square"
     stroke-width="9.9348"
     id="g16"
     transform="matrix(0.85180177,0,0,0.85180177,15.665999,9.1163371)"
     style="fill:#000000;fill-opacity:1;stroke:none"><path
       d="M 171.32822,74.199966 146.96093,68.697351 11.291577,67.874495 13.663489,16.736693 169.60834,16.447687 164.16796,29.869806 33.108593,28.805138 l -2.775971,21.505711 111.546278,0.78057 -2.57033,-8.445613 -84.305951,-1.939935 -2.286231,-6.404249 92.506672,3.272452 3.95833,12.831474 7.66783,0.323322 17.78274,10.023 z"
       id="path2"
       style="fill:#000000;fill-opacity:1;stroke:none;stroke-width:9.93424;stroke-dasharray:none;stroke-opacity:1"
       sodipodi:nodetypes="ccccccccccccccccc" /><path
       d="M 118.864,192.04057 19.114,191.815 16.573247,70.030954 l 19.840297,0.205424 0.473494,102.884362 103.238542,1.58411 z"
       id="path4"
       style="fill:#000000;fill-opacity:1;stroke:none;stroke-opacity:1"
       sodipodi:nodetypes="ccccccc" /><path
       d="m 65.22341,169.42595 -0.313237,-26.35744 26.697412,-10.6033 2.426175,-40.609978 -41.274473,-15.775067 2.258504,42.353185 12.75607,0.8399 4.131472,-19.373581 11.466462,4.475801 -2.93091,20.1054 -25.075717,3.60333 -0.200887,40.81907 z"
       id="path6"
       style="fill:#000000;fill-opacity:1;stroke:none;stroke-opacity:1"
       sodipodi:nodetypes="ccccccccccccc" /><path
       d="m 105.7734,167.0143 27.2458,0.69996 15.41203,-24.22606 -8.43689,-26.71996 -31.18693,-8.92891 -0.61823,22.10357 22.17057,4.50829 3.36715,8.46662 -8.30019,8.67425 -5.54047,-0.22864 1.91696,-19.23572 -13.61402,-2.1848 z"
       id="path8"
       style="fill:#000000;fill-opacity:1;stroke:none;stroke-opacity:1"
       sodipodi:nodetypes="ccccccccccccc" /><path
       d="m 149.71763,182.60975 4.9233,-60.64126 34.73907,-1.20849 0.44813,10.96117 -23.85415,4.45956 -2.774,58.37794 z"
       id="path10"
       style="fill:#000000;fill-opacity:1;stroke:none;stroke-opacity:1"
       sodipodi:nodetypes="ccccccc" /><path
       d="m 168.61388,152.59308 17.79443,-2.68634 -1.10669,7.51858 -17.40395,13.10326 z"
       id="path12"
       style="fill:#000000;fill-opacity:1;stroke:none;stroke-opacity:1"
       sodipodi:nodetypes="ccccc" /></g></svg>
