<?xml version="1.0" encoding="UTF-8" standalone="no"?>
<svg
   xmlns:osb="http://www.openswatchbook.org/uri/2009/osb"
   xmlns:dc="http://purl.org/dc/elements/1.1/"
   xmlns:cc="http://creativecommons.org/ns#"
   xmlns:rdf="http://www.w3.org/1999/02/22-rdf-syntax-ns#"
   xmlns:svg="http://www.w3.org/2000/svg"
   xmlns="http://www.w3.org/2000/svg"
   id="svg8"
   version="1.1"
   viewBox="0 0 210 297"
   height="297mm"
   width="210mm">
  <defs
     id="defs2">
    <linearGradient
       osb:paint="solid"
       id="linearGradient2291">
      <stop
         id="stop2289"
         offset="0"
         style="stop-color:#000000;stop-opacity:1;" />
    </linearGradient>
    <linearGradient
       osb:paint="solid"
       id="linearGradient837">
      <stop
         id="stop835"
         offset="0"
         style="stop-color:#000000;stop-opacity:1;" />
    </linearGradient>
  </defs>
  <metadata
     id="metadata5">
    <rdf:RDF>
      <cc:Work
         rdf:about="">
        <dc:format>image/svg+xml</dc:format>
        <dc:type
           rdf:resource="http://purl.org/dc/dcmitype/StillImage" />
        <dc:title></dc:title>
      </cc:Work>
    </rdf:RDF>
  </metadata>
  <g
     id="layer1">
    <path
       id="path2301"
       transform="scale(0.26458333)"
       d="m 414.98047,923.60742 h 0.28125 v -7.96875 c 0.0125,-0.3307 0.0242,-0.66143 0.0352,-0.99219 -0.0113,-0.23374 -0.023,-0.46747 -0.0352,-0.70117 v -8.26172 h -0.41406 C 410.05293,794.81473 318.84545,707.35897 207.87305,707.22266 96.849979,707.28899 5.5645545,794.76418 0.76757812,905.68359 h -0.28125 v 7.97071 c -0.0125102,0.3307 -0.024229,0.66143 -0.0351562,0.99218 0.0113232,0.23375 0.023042,0.46747 0.0351562,0.70118 v 8.25976 h 0.4140625 M 207.87305,726.11719 c 100.59667,0.056 183.42861,79.08345 188.21093,179.5664 H 19.794922 C 24.574743,805.25189 107.32775,726.24398 207.87305,726.11719 Z"
       style="fill:#000000;fill-opacity:1;fill-rule:nonzero;stroke:#000000;stroke-width:0.90183955;stroke-opacity:0" />
    <path
       id="path2314"
       d="m 23.29139,217.57915 c 9.719945,17.42483 19.810482,31.42168 30.948193,35.73217 l 25.891368,-8.66103 2.834822,-9.82738 z"
       style="fill:#000000;fill-opacity:1;stroke:#000000;stroke-width:0.26458332px;stroke-linecap:butt;stroke-linejoin:miter;stroke-opacity:1" />
    <path
       id="path2316"
       d="m 59.720238,197.97024 0.566964,31.37202 c 3.744377,-11.09357 9.479569,-16.96124 16.063988,-20.5997 -2.67187,-2.80756 -10.298151,-6.96632 -16.630952,-10.77232 z"
       style="fill:#000000;fill-opacity:1;stroke:#000000;stroke-width:0.26458332px;stroke-linecap:butt;stroke-linejoin:miter;stroke-opacity:1" />
    <path
       id="path2326"
       d="m 15.686012,265.62797 c -4.281692,-6.37438 1.759677,-14.78056 4.535714,-18.33185 -0.12745,5.15204 -1.90869,11.32179 4.157738,12.66221 -4.276996,1.06237 -6.931341,3.09834 -8.693452,5.66964 z"
       style="fill:#000000;fill-opacity:1;stroke:#000000;stroke-width:0.26458332px;stroke-linecap:butt;stroke-linejoin:miter;stroke-opacity:1" />
    <path
       id="path2328"
       d="m 24.75744,274.51042 c 1.721767,-3.64218 4.008476,-6.9705 10.205358,-8.1265 -1.260853,8.6784 4.870931,11.81233 11.528274,14.55209 -7.542911,-2.41311 -19.104515,-8.47957 -21.733632,-6.42559 z"
       style="fill:#000000;fill-opacity:1;stroke:#000000;stroke-width:0.26458332px;stroke-linecap:butt;stroke-linejoin:miter;stroke-opacity:1" />
    <path
       id="path2330"
       d="m 49.892856,268.65177 c 2.897143,-3.40205 7.127679,-6.27074 7.748511,-10.58332 3.364752,4.31694 7.304505,5.18388 11.150298,6.61458 -4.613472,0.18973 -11.830095,0.83843 -18.898809,3.96874 z"
       style="fill:#000000;fill-opacity:1;stroke:#000000;stroke-width:0.26458332px;stroke-linecap:butt;stroke-linejoin:miter;stroke-opacity:1" />
    <path
       id="path2332"
       d="m 80.130951,259.95833 c 8.553102,-4.2067 13.808897,-9.46328 12.284226,-12.6622 8.513923,4.25464 10.790663,10.79933 10.772323,14.55208 -6.69314,-2.41092 -15.371239,-6.42415 -23.056549,-1.88988 z"
       style="fill:#000000;fill-opacity:1;stroke:#000000;stroke-width:0.26458332px;stroke-linecap:butt;stroke-linejoin:miter;stroke-opacity:1" />
    <path
       id="path2334"
       d="m 74.46131,264.49405 c -0.544084,4.98732 -8.844973,12.90336 -16.441965,17.3869 7.172679,0.43302 15.003307,6.12962 20.788692,-4.53572 -3.579038,0.53032 -5.000952,-7.73715 -4.346727,-12.85118 z"
       style="fill:#000000;fill-opacity:1;stroke:#000000;stroke-width:0.26458332px;stroke-linecap:butt;stroke-linejoin:miter;stroke-opacity:1" />
  </g>
</svg>
