<?xml version="1.0" encoding="UTF-8" standalone="no"?>
<!-- Created with Inkscape (http://www.inkscape.org/) -->

<svg
   width="200mm"
   height="200mm"
   viewBox="0 0 200 200"
   version="1.1"
   id="svg5"
   inkscape:version="1.4.2 (f4327f4, 2025-05-13)"
   sodipodi:docname="goodb.svg"
   xmlns:inkscape="http://www.inkscape.org/namespaces/inkscape"
   xmlns:sodipodi="http://sodipodi.sourceforge.net/DTD/sodipodi-0.dtd"
   xmlns="http://www.w3.org/2000/svg"
   xmlns:svg="http://www.w3.org/2000/svg">
  <sodipodi:namedview
     id="namedview7"
     pagecolor="#ffffff"
     bordercolor="#000000"
     borderopacity="0.25"
     inkscape:showpageshadow="2"
     inkscape:pageopacity="0.0"
     inkscape:pagecheckerboard="0"
     inkscape:deskcolor="#d1d1d1"
     inkscape:document-units="mm"
     showgrid="false"
     inkscape:zoom="0.64693624"
     inkscape:cx="22.413337"
     inkscape:cy="466.04284"
     inkscape:window-width="1956"
     inkscape:window-height="1201"
     inkscape:window-x="1886"
     inkscape:window-y="678"
     inkscape:window-maximized="0"
     inkscape:current-layer="layer1" />
  <defs
     id="defs2" />
  <g
     inkscape:label="图层 心"
     inkscape:groupmode="layer"
     id="layer1">
    <g
       id="layer2"
       inkscape:label="图层 自己">
      <path
         style="fill:#000000;fill-opacity:1;stroke:none;stroke-width:6.00715;stroke-linecap:square;stroke-dasharray:none"
         d="m 110.89562,176.43045 c 5.46509,-4.27019 -2.29534,-51.12399 -0.87094,-51.13429 2.8488,-0.0204 4.8064,33.90206 8.34191,41.777 3.5355,7.87495 5.70153,-2.38849 5.49564,-5.82921 l -3.41529,-57.07356 -12.88691,-8.591279 v -4.295638 c 0,0 5.38779,-5.085262 7.40297,-8.153717 3.23485,-4.925624 7.21799,-10.21333 7.28959,-16.105773 0.0633,-5.213078 -2.53258,-10.600663 -6.10129,-14.40125 -4.38335,-4.668164 -10.7844,-8.328082 -17.182549,-8.591276 -5.644567,-0.232187 -11.295006,2.809451 -15.730059,6.308785 -3.420268,2.698657 -6.694468,6.395135 -7.55378,10.666266 -1.362959,6.774453 1.158087,14.190029 4.506283,20.234898 2.310228,4.170918 10.18628,10.042067 10.18628,10.042067 v 4.295638 l -12.886913,8.591279 c 0,0 -7.133957,32.77201 -7.230117,55.89977 -0.01354,3.25689 7.628537,8.17755 8.388246,5.01048 4.445685,-18.53321 5.989713,-39.16003 9.043701,-39.17893 1.526996,-0.009 -3.609848,40.67337 0.990398,50.61869 l 8.036577,5.38044 c -42.572829,0 -76.994347,-53.26934 -83.663373,-94.913005 -3.4487759,-21.535331 6.760873,-49.453792 25.773828,-60.138929 17.653086,-9.920899 39.889099,8.591276 60.138929,8.591276 20.249829,0 42.485839,-18.512175 60.138929,-8.591276 19.01295,10.685137 29.38757,38.630667 25.77383,60.138929 -3.52703,20.992175 -46.96433,95.039555 -82.90636,95.100995 z"
         id="path3083"
         sodipodi:nodetypes="cssscccaaaaaaacccsssccaaaascc" />
    </g>
  </g>
</svg>
