<?xml version="1.0" encoding="UTF-8" standalone="no"?>
<svg
   xmlns:dc="http://purl.org/dc/elements/1.1/"
   xmlns:cc="http://creativecommons.org/ns#"
   xmlns:rdf="http://www.w3.org/1999/02/22-rdf-syntax-ns#"
   xmlns:svg="http://www.w3.org/2000/svg"
   xmlns="http://www.w3.org/2000/svg"
   width="200mm"
   height="200mm"
   viewBox="0 0 200 200"
   version="1.1"
   id="svg970">
  <defs
     id="defs964" />
  <metadata
     id="metadata967">
    <rdf:RDF>
      <cc:Work
         rdf:about="">
        <dc:format>image/svg+xml</dc:format>
        <dc:type
           rdf:resource="http://purl.org/dc/dcmitype/StillImage" />
        <dc:title></dc:title>
      </cc:Work>
    </rdf:RDF>
  </metadata>
  <g
     id="layer1-3"
     transform="rotate(-136.05296,102.18121,95.594467)">
    <path
       style="fill:#000000;stroke:#000000;stroke-width:0.264583px;stroke-linecap:butt;stroke-linejoin:miter;stroke-opacity:1"
       d="M 120.89081,128.43676 110.72607,-16.634611 87.685833,-13.850307 101.92279,127.82082 c -12.389448,9.72747 -27.06282,23.11956 -20.717617,50.94364 l 22.558907,23.40369 0.0746,-33.14565 13.93787,-16.58465 11.89249,7.43607 -2.50416,34.43757 20.33452,-30.10013 c -3.23488,-16.44757 -14.89413,-26.13324 -26.60857,-35.7746 z"
       id="path1571" />
    <path
       style="fill:#000000;stroke:#000000;stroke-width:0.264583px;stroke-linecap:butt;stroke-linejoin:miter;stroke-opacity:1"
       d="m 209.44413,80.878448 0.86261,11.243071 -13.44963,4.564464 -10.3579,-3.665466 c 0,0 -112.739226,-3.675998 -113.565458,-2.35461 -0.82623,1.321386 -12.439665,7.790801 -12.439665,7.790801 L 10.167494,102.34338 C -8.0059415,92.752833 -0.60407482,77.552459 8.8028052,74.784891 13.184221,73.495849 60.926297,74.940962 60.926297,74.940962 l 12.981032,6.386826 114.391691,1.033224 7.85265,-5.46928 z"
       id="path1573" />
  </g>
</svg>
